<?xml version="1.0" standalone="no"?>
<!DOCTYPE svg PUBLIC "-//W3C//DTD SVG 1.1//EN" "http://www.w3.org/Graphics/SVG/1.1/DTD/svg11.dtd" >
<svg xmlns="http://www.w3.org/2000/svg" xmlns:xlink="http://www.w3.org/1999/xlink" version="1.1">
<metadata>
Created by FontForge 20170731 at Thu Apr  3 16:48:07 2014
 By ,,,
</metadata>
<defs>
<font id="flaticon" horiz-adv-x="512" >
  <font-face 
    font-family="flaticon"
    font-weight="400"
    font-stretch="normal"
    units-per-em="512"
    panose-1="2 0 5 3 0 0 0 0 0 0"
    ascent="448"
    descent="-64"
    bbox="-0.0571429 -64.1667 596 448.375"
    underline-thickness="0"
    underline-position="0"
    unicode-range="U+E000-E010"
  />
<missing-glyph 
 />
    <glyph glyph-name=".notdef" 
 />
    <glyph glyph-name=".notdef" 
 />
    <glyph glyph-name=".null" horiz-adv-x="0" 
 />
    <glyph glyph-name="nonmarkingreturn" horiz-adv-x="170" 
 />
    <glyph glyph-name="apple11" unicode="&#xe000;" horiz-adv-x="417" 
d="M201 341q19 9 31 24q31 36 28 83h-3q-45 -6 -72 -38q-31 -35 -28 -80q21 -2 44 11zM348 167q-5 65 55 106q-29 43 -82 50q-28 4 -58 -5q-3 -1 -7 -3t-9 -3.5t-7 -2.5q-18 -7 -25 -8q-8 -1 -20 3q-5 2 -16 6.5t-20 7.5t-17 4q-39 6 -76 -17q-61 -38 -66 -123v-1v-21
q8 -106 76 -189q25 -31 53 -35h8q11 1 40.5 12t52.5 8q9 -1 42 -14q27 -10 49 -2q12 4 24 14.5t18 18.5t16 23q25 36 38 76v1q-63 29 -69 94z" />
    <glyph glyph-name="apple19" unicode="&#xe001;" 
d="M396 176q-1 61 55 97q-33 49 -94 51q-23 2 -57 -10.5t-41 -12.5q-8 0 -37 11t-47 11q-33 -1 -61 -18t-45 -46q-21 -37 -21 -87t15 -93.5t38 -77.5q14 -20 24 -32t26 -23t31 -10t39 11t45 10q20 0 44 -10.5t41 -9.5q16 0 31.5 10.5t24 21t22.5 31.5q22 31 35 72
q-4 2 -8.5 4.5t-16 11.5t-20.5 19.5t-16 29t-7 39.5zM331 366q32 38 27 82q-19 -1 -40.5 -12t-34.5 -27q-33 -38 -28 -79q21 -2 41.5 8.5t34.5 27.5z" />
    <glyph glyph-name="apple2" unicode="&#xe002;" horiz-adv-x="417" 
d="M307 448h4q4 -46 -28 -83q-33 -38 -75 -35q-3 44 28 80q27 32 71 38zM417 72v-1q-14 -43 -42 -82q-13 -17 -19 -24.5t-21.5 -17.5t-31.5 -10q-15 0 -41 10t-42 10q-18 0 -44 -9.5t-38 -11.5h-10q-26 4 -54 37q-67 81 -74 186v23q2 41 20 73.5t46 49.5q37 23 74 17
q15 -2 36 -10q29 -11 37 -11q4 0 25 8q2 0 7.5 2.5t7.5 3t7.5 2.5t8 2.5t7.5 2t8.5 1.5t8.5 1t9 1t8.5 -0.5t9.5 -1.5q58 -8 84 -50q-60 -38 -55 -106q6 -65 68 -95z" />
    <glyph glyph-name="apple22" unicode="&#xe003;" horiz-adv-x="757" 
d="M532.5 118.5q-19.5 28.5 -19.5 63.5q0 33 18 59q10 15 33 34q-15 18 -30 29q-27 18 -61 18q-20 0 -49 -9q-28 -10 -41 -10q-10 0 -39 8q-30 9 -51 9q-49 0 -81 -41q-32 -42 -32 -107q0 -69 42 -144q42 -74 86 -74q14 0 37 10q24 9 41 9q19 0 43 -9q26 -9 40 -9
q37 0 74 56q24 36 35 72q-26 7 -45.5 35.5zM435 339q18 18 27 40q8 21 8 39v2.5v2.5t-0.5 3.5t-0.5 3.5q-51 -12 -72 -43q-21 -30 -22 -73q19 2 30 5q15 5 30 20z" />
    <glyph glyph-name="apple38" unicode="&#xe004;" 
d="M280 387q12 15 31 25t36 10q5 -39 -24 -73q-29 -36 -68 -33q-5 37 25 71zM411 19q-12 -18 -20 -28t-22 -19.5t-28 -9.5q-15 0 -36.5 9.5t-39.5 9.5q-19 0 -40.5 -9.5t-34.5 -9.5q-14 -1 -28.5 9t-23 20.5t-21.5 28.5q-21 30 -34 69.5t-13.5 84.5t18.5 78q15 26 40.5 41.5
t54.5 16.5q17 0 43 -10t33 -10q6 0 36.5 11.5t51.5 9.5q54 -2 84 -46q-50 -33 -50 -87q0 -20 6.5 -36.5t14.5 -26t18.5 -17.5t14.5 -10l8 -4q-13 -37 -32 -65z" />
    <glyph glyph-name="apple6" unicode="&#xe005;" horiz-adv-x="407" 
d="M302 448h-13q-41 -16 -64 -42t-24 -71q47 -6 74 26.5t27 86.5zM116 -64h27q30 20 70.5 19t71.5 -19h21q30 13 65.5 59.5t35.5 77.5q-29 6 -46.5 34.5t-19.5 61t11.5 63t40.5 41.5q-35 52 -96 52q-6 0 -12 -1q-14 -1 -41 -12.5t-40 -11.5q-14 0 -39.5 12t-38.5 12
q-41 2 -70 -15t-41 -46t-14.5 -66t6.5 -76.5t24 -75.5t38 -65.5t47 -43.5z" />
    <glyph glyph-name="linux" unicode="&#xe006;" 
d="M420 63q-4 7 -7.5 7t-3.5 -8q0 -15 21 -27l3 -1.5l4 -2t2 -2.5t1 -4q0 -6 -9 -9q-30 -11 -66 -36q-12 -8 -22.5 -3.5t-10.5 17.5q-1 15 -0.5 26.5t-0.5 25.5t-3 26q-1 11 6 13q5 1 10 -8q11 -18 33 -12q14 5 26.5 23t10.5 32q-7 63 -40 100q-12 13 -20 25l-4 8
q-13 24 -15 43q-1 4 -1.5 16.5t-2 25.5t-4.5 22q-10 29 -33 42q-19 10 -38 11q-11 0 -22 -3q-40 -9 -44 -59q-2 -14 0 -27q9 -72 -31 -115q-10 -11 -16.5 -25.5t-13 -34.5t-10.5 -29q-5 -9 -1.5 -16.5t16.5 -5.5q6 0 14 -9q30 -34 51 -76q9 -20 -1 -31q-8 -10 -29 -6
q-13 3 -77 19q-17 4 -10 20q5 12 1 20q-10 21 14 24q13 2 18 10q5 9 -3 9q-3 -1 -8 -4q-9 -5 -22 -6q-16 -2 -13 -20q5 -22 0 -34q-5 -14 -1 -20.5t18 -9.5q7 -1 49.5 -12t43.5 -12q8 -3 30 15.5t26 18.5h3q10 0 31 -3t30 -3q7 0 19 -12q29 -30 59 -4q20 17 45 28l2 1
q6 2 17 13q16 16 3 23q-16 11 -24 26zM224 18l-3 1l-4.5 1.5t-4 2.5t-2.5 3t1 4q12 14 -3 29q-28 26 -33 32q-14 15 -17 35q-2 9 -2 20.5v17.5l1 7q0 3 2 3q1 1 1 0t0.5 -3.5t0.5 -4.5v-6t1 -6v-3q1 -8 4 -8t5 8q6 23 19 47q4 5 6.5 20.5t6.5 22.5t6.5 8t7.5 -5
q14 -18 33 -4q6 3 15.5 9.5t12.5 8.5q1 0 2 1q7 4 5 8q-3 4 -13 0q0 -1 -8.5 -5t-13.5 -5q-6 -2 -7.5 -0.5t4.5 4.5q1 1 2 1q22 9 32 13q9 3 6 8q-2 4 -7 0q-2 -1 -3 -1q-25 -12 -46 -12q-17 0 -21 15q-2 4 0 6.5t6.5 5t6.5 4.5q3 2 5 4l6 5v2q2 8 0.5 14t-10 8t-12.5 -3
q-2 -2 -3 -5t-1 -6v-2q0 -4 -2 -5q-1 -1 -2 3q-3 7 0 16q4 14 17 14q11 0 17 -9.5t5.5 -17.5t-0.5 -10h1q3 -1 5 -3q5 -3 6 6v4.5t1 4.5q0 14 6 20t15 5q11 -2 17 -11t5 -16.5t0 -9.5q-4 -3 -6 -3q-4 0 -3 9q1 2 1 4q0 4 -1 7q-1 7 -4 10q-2 2 -8.5 1.5t-9.5 -5.5
q-6 -7 -4 -22q0 -6 3 -7q7 -5 13 -7q16 -5 12 -19q-3 -12 4 -25q27 -46 41 -110q4 -15 8 -14q4 8 5 27q2 26 -6 44q-2 6 -3 8q0 4 6 -5q14 -20 11 -51q-1 -21 5 -27q2 -4 1.5 -4t-9.5 -1q-6 -1 -10.5 -5t-4.5 -7q-1 -4 -3 -5q-15 -9 -18 -24t1 -29q0 -2 -3 -5.5t-7 -7
l-4 -3.5q-35 -36 -82 -15zM231 326q2 -4 1 -4l-3 3q-2 4 -1 5zM283 329q-2 3 -1 4t4 -2l2 -4l-2 -1z" />
    <glyph glyph-name="linux1" unicode="&#xe007;" horiz-adv-x="436" 
d="M425 30q-25 11 -24 31q0 8 -3 15t-6 10l-3 3q1 4 2.5 10.5t3 25.5t-4.5 31q-11 32 -71 115q-13 19 -14.5 63t-13.5 70q-11 26 -33.5 36.5t-45.5 7t-40 -15.5q-10 -6 -15.5 -16t-7 -25t-2 -22.5t1 -25.5l1.5 -18q3 -42 -2 -54q-1 -2 -7.5 -11t-16 -21.5t-15.5 -21.5
q-8 -11 -19.5 -43.5t-15.5 -40.5q-5 -8 -5.5 -17t0.5 -13.5t2 -4.5q-7 -2 -13 -14q-7 -16 -37 -22q-24 -5 -15 -31q2 -4 2.5 -7.5t-0.5 -8t-1.5 -6.5t-2.5 -8.5t-3 -9.5q-4 -13 10 -18.5t39 -8.5q14 -2 42 -12.5t41 -11.5q11 -2 19.5 2.5t11.5 9.5l2 5q29 7 59 7
q14 1 28.5 -0.5t22.5 -3.5l8 -2q6 -13 16 -18q7 -5 22 -3.5t25 12t74 46.5q15 8 15 20t-11 15zM238.5 381q10.5 0 17.5 -8.5t7 -21.5q0 -19 -13 -27q-1 0 -7 3q8 4 8 16q0 7 -3.5 12t-9 5t-9 -5t-3.5 -12q0 -6 2 -10q-9 4 -11 5q-3 6 -3 13q0 13 7 21.5t17.5 8.5zM237 318
q15 -6 13 -12q0 -1 -1 -2l-2 -2t-4 -2.5t-6 -3.5q-30 -18 -36 -18q-5 -1 -17 7q-20 13 -16 20q10 8 14 12q15 14 23 12q3 0 9 -2.5t13.5 -5.5t9.5 -3zM175 376q8 0 14 -8t6 -20q0 -4 -1 -8q-4 -2 -8 -5q-2 -1 -3 -3q2 5 1 13q-1 6 -4.5 10t-8.5 4q-10 -2 -7 -18
q1 -6 4.5 -10.5t8.5 -3.5q-4 -4 -7 -6q-14 6 -14 27q0 12 5.5 20t13.5 8zM154 -26q-1 -5 -5 -9.5t-7 -7.5l-4 -2q-11 -4 -61 17q-7 3 -31.5 7t-27.5 7q-2 5 -1.5 8t3 10.5t3.5 11.5q1 7 -1 15.5t-1 12.5t7.5 6t15.5 4t13 4q5 3 10.5 14t8.5 13q5 3 13.5 -4.5t13.5 -15.5
q2 -2 10 -15.5t15.5 -25.5t11.5 -16q18 -19 14 -34zM295 85q-2 -11 -2 -51q-3 -4 -8 -10t-21.5 -17t-33.5 -13.5t-31.5 -2.5h-20.5l-5 1l-22 25q2 0 4.5 1t6.5 6t3 12q-1 8 -28 29t-31 31q-6 17 -3 38.5t12 35.5q5 8 14.5 34.5t15.5 33.5q8 10 13.5 26.5t2.5 25.5
q2 -3 6.5 -8t15.5 -11.5t18 -4.5t21 10t25 14t14 4q5 -5 30 -63t28 -80q2 -17 1.5 -30.5t-2.5 -20.5l-2 -8q-19 4 -21 -7zM417 10q-2 -2 -28 -15.5t-33 -20.5q-24 -25 -38 -21q-8 3 -13 13t-2 24q9 38 8 54q-2 30 0 31l8 1q-2 -23 12 -29q11 -4 23 -0.5t17 8.5l11 16
q1 0 2 -1t2.5 -4.5t1.5 -7.5q-1 -8 3 -17t10 -12q23 -12 16 -19z" />
    <glyph glyph-name="linux3" unicode="&#xe008;" horiz-adv-x="757" 
d="M593 19.5q-3 3.5 -9 6.5q-1 1 -5 3t-6 3.5t-6 5.5t-6 8.5t-4 11.5t-2 16q-4 -3 -4.5 -13.5t4 -21t14.5 -13.5q9 -3 14.5 -6.5t7 -8t-5.5 -10t-22 -10.5q-21 -7 -29.5 -12t-25.5 -19q-11 -10 -24 -10.5t-21 9.5t-5 29q5 35 0 55q-5 16 -2.5 28t8 14t11.5 -8l3 -6l3 -6
t4 -4.5t6.5 -3.5t8.5 -2q10 0 18 4.5t11 9.5l8 10t7 6q3 0 5.5 6t3.5 16t-1 24q-5 25 -17.5 54.5t-28.5 46.5q-28 30 -38 62q-10 34 -8 61q1 20 -9 42.5t-26 34.5q-10 8 -25.5 12t-30.5 4q-18 0 -29 -6q-23 -12 -30.5 -29.5t-7.5 -43.5q2 -57 5 -89q-4 -15 -35 -55
q-6 -6 -11.5 -16t-8.5 -17.5l-9 -22.5q-5 -14 -7 -20q-2 -5 -6.5 -12t-7 -13.5t-2.5 -14.5v-11q2 -7 5 -5q13 10 32 -11q14 -15 48 -69q3 -5 6 -10.5t5.5 -15t2 -17t-6.5 -13.5t-18 -8q-7 -1 -16.5 1t-23.5 6.5t-21 6.5q-10 2 -28 6q-19 4 -25 5q-9 3 -10 8q-1 4 4 13.5
t5 13.5t-0.5 7t-1.5 4.5t-2.5 5t-2.5 5.5q-5 12 -1 16q3 4 12 3q15 -1 24 4q15 10 9 31q0 -10 -3.5 -15t-11.5 -10q-5 -3 -17.5 -3.5t-16.5 -3.5q-3 -3 -3 -8t1.5 -10.5t3 -12.5t1.5 -11q-1 -3 -5.5 -15.5t-2.5 -19.5q2 -3 5.5 -5.5t9.5 -4t11 -2.5q6 -1 14 -3q9 -1 15 -2
q18 -4 41.5 -12.5t31.5 -9.5q8 0 15.5 3.5t12.5 8t15.5 8.5t22.5 5q6 0 16.5 0.5t16.5 0.5h37q9 -1 13.5 -3.5t6 -5.5t5 -7t8.5 -7q11 -5 25.5 -4t19.5 6q8 7 21.5 18t24.5 16q2 1 7.5 3.5t9.5 4.5q3 2 8.5 5t9 5.5t6.5 5.5t4 6t1 6.5t-3 7zM440 295q0 1 0.5 1t1.5 -1
q0 -1 1 -2l2.5 -2.5l2.5 -2.5q2 -1 4.5 -1.5t3.5 -1.5t2 -3q0 -3 -1.5 -5.5t-3.5 -2.5q-5 1 -11 9t-2 12zM404.5 406.5q1.5 1.5 1.5 2.5v4t0.5 4t3.5 2q2 0 6 -4q1 -1 3 -2t2.5 -2t0.5 -2t-2 -1.5t-4.5 -0.5h-2.5q-2 -1 -4 -3t-3.5 -2.5t-2.5 -0.5q-1 2 -0.5 3t2 2.5z
M266 193q2 2 3 3.5t1.5 4t1 3.5t1.5 1t1 -1v-1v-1v-0.5v-1.5t-0.5 -2t-0.5 -2q-1 -3 -3.5 -5t-3.5 -2q-2 1 0 4zM453 16q-1 -9 -4 -25.5t-4 -21.5q-6 0 -7 4t2 11q6 19 6 26q1 13 -3 15q-3 2 -9 -9q-13 -20 -51 -25q-34 -4 -47 11q-3 2 -6 0.5t-4 -2.5q0 -1 0.5 -2t2.5 -3.5
t3 -4.5q12 -19 -2 -26q0 13 -2 20t-8 15.5t-8 12.5q9 1 13.5 6.5t4 12t-5.5 11.5q-2 2 -26 21.5t-30 25.5q-1 2 -7 6.5t-7 7.5q-13 29 -3 48l1 1q2 0 0 -5q-1 -8 -1 -16q1 -18 11 -27q6 -6 8 1q2 2 1.5 16.5t0.5 19.5q2 17 13.5 41t17.5 25q-5 9 -3 18.5t6 16.5t8.5 16
t4.5 16v3q1 2 7 -6q12 -18 18 -21q6 -4 14 0t19 12.5t19 12.5q1 0 3 1l3 1.5t2.5 1.5t2.5 1.5l2 1t1 1.5v1q0 3 -2 3.5t-5.5 -1t-7 -3.5t-8.5 -4.5t-9.5 -5t-10 -4t-10.5 -2.5q-12 0 -19 7q-5 4 -5 5t3 1q15 -2 22 -1q8 1 20 7q3 1 13 5q11 5 16 6q4 1 5 3t0.5 3.5t-1.5 2.5
q-3 2 -6 -2q-1 -3 -5.5 -5.5t-8.5 -3.5t-10 -3t-7 -2q-15 -5 -29 -4q-6 0 -10 1.5t-5.5 3.5t-4.5 5.5t-7 5.5q-3 2 -2 5.5t4 7.5q1 0 6.5 3.5t7.5 6.5q3 4 9 9q0 1 0.5 6t-2.5 11t-8 6q-7 0 -10 -4t-2 -10q0 -6 2.5 -10t4.5 -4q3 0 2 -2q-2 -4 -5 -4q-2 -1 -4.5 3.5
t-3.5 10.5t-1 11q1 9 5 17t12 8q8 -1 12.5 -10.5t4.5 -25.5q1 -2 4.5 -1.5t9.5 0t8 -2.5q1 0 1 4q-5 36 25 38q5 0 8 -1.5t6.5 -4.5t6 -8.5t3.5 -14.5v-11q0 -9 -3 -10q-6 -2 -8.5 0t0.5 8q3 7 -1 16.5t-15 8.5q-7 0 -10 -7.5t-2.5 -14.5t3.5 -8q1 0 9.5 -4.5t12.5 -4.5
q12 -3 13.5 -7.5t-1.5 -14t-2 -15.5t4.5 -11.5t7 -9.5t8 -16t8.5 -29l2.5 -2.5t3.5 -4t4.5 -7t5.5 -13t6 -19.5q3 -13 3 -30.5t2.5 -24t10.5 -5.5q12 1 15 12q9 33 -16 79q-9 18 -16 24q10 -6 20.5 -21.5t13.5 -29.5q0 -1 1.5 -7t1.5 -7t1 -6t1 -6.5t0.5 -5.5t0 -6.5
t-1 -6.5t-1.5 -7.5t-2 -7.5q16 -7 16 -12q-6 5 -17.5 6.5t-21 -3t-9.5 -15.5q-10 0 -15 -5q-6 -7 -6.5 -20t2 -28t2.5 -21zM333 347q-1 1 -1 2q0 3 2 2q2 0 3.5 -4t0.5 -9q0 -1 -1 -1q-3 0 -2 6q1 4 -2 4zM407 343l-1 -1l-2 -1q-1 8 -5 9l-1 1q-2 2 2 2q1 0 2.5 -1t3 -3.5
t1.5 -5.5zM340 326q0 -1 2 -1q1 0 2.5 2.5t4.5 3.5h-3q-6 -1 -6 -5zM365 330q3 1 5 -1.5t4 -1.5q1 0 0 2q-2 4 -9 1z" />
    <glyph glyph-name="linux5" unicode="&#xe009;" 
d="M220 318q0 -2 1 -2t2.5 3t4.5 3h-3q-5 -1 -5 -4zM243 321q3 1 5 -1t3 -2q2 1 1 2q-2 4 -9 1zM448 37q-1 0 -4 2q-4 2 -6 3.5t-5.5 5t-5.5 8t-4 11t-2 14.5q-4 -3 -4.5 -12.5t4 -19.5t13.5 -12q8 -3 13.5 -6.5t7 -8t-5 -9.5t-20.5 -9q-20 -7 -28 -11.5t-24 -18.5
q-11 -8 -23 -9t-19.5 8.5t-4.5 27.5q5 33 0 52q-4 15 -2 26t7 13t11 -8q1 -2 3 -5.5t3 -5.5t3.5 -4.5t6 -3.5t8.5 -1q9 0 16 4t11 9t7.5 9.5t6.5 4.5q3 1 5 6.5t3 15t-1 22.5q-4 23 -16 51t-27 43q-26 29 -35 59q-10 32 -8 57q1 18 -8 39.5t-25 32.5q-9 7 -23.5 11t-28.5 4
q-17 0 -28 -6q-21 -11 -28 -27.5t-7 -40.5q2 -53 5 -83q-4 -14 -33 -52q-6 -6 -11 -15t-8 -16t-8 -21t-7 -19t-6 -11.5t-6.5 -12.5t-2.5 -14q0 -6 1 -10q1 -7 4 -4q12 9 30 -11q13 -14 45 -65q3 -4 5.5 -9.5t5 -14t2 -15.5t-6 -13t-17.5 -7q-6 -1 -14.5 1t-22.5 6
q-13 4 -20 6q-9 2 -26 5t-23 5q-9 2 -10 7q-1 4 4 13t5 13q0 3 -0.5 6t-1.5 4.5t-2.5 4.5t-1.5 5q-5 11 -2 15t12 3q14 -1 22 4q14 9 9 28q0 -9 -3.5 -13.5t-11.5 -9.5q-4 -2 -15.5 -2.5t-15.5 -4.5q-3 -2 -3 -7t1.5 -10t2.5 -11t1 -11q0 -3 -4.5 -14.5t-2.5 -17.5
q2 -3 5 -5.5t9 -4l10 -2.5q6 -1 14 -2q9 -2 13 -3q18 -3 39.5 -11t29.5 -8q8 -1 14.5 2.5t11.5 8t14.5 8t21.5 3.5q4 1 15 1h16h34q8 0 12.5 -2.5t6 -5.5t4.5 -6.5t8 -6.5q10 -5 24 -4t18 6q8 7 20.5 17t22.5 15q2 0 7 3q5 2 9 4q3 2 8 4.5t8 5t6.5 5.5t4.5 6t0.5 6
t-3.5 6.5t-8 6.5zM313 289h1l1 -1l1.5 -1.5l2 -2l2.5 -2.5q2 -1 4 -1.5t3.5 -1.5t1.5 -3q1 -3 -0.5 -5t-4.5 -2q-5 1 -10.5 8.5t-1.5 11.5zM279.5 393q1.5 2 1.5 3q1 1 0.5 3t0 3.5t3.5 1.5q2 0 6 -4q1 0 3 -1t2.5 -2l0.5 -1q-1 -2 -2.5 -2.5t-4 -0.5h-2.5l-4 -2l-3 -3t-2 0
q-1 2 -1 2.5t1.5 2.5zM150 193l3 3t1.5 3.5t1 3.5t1.5 1l1 -1v-1v-1.5t-0.5 -1t-0.5 -1.5v-2q-1 -3 -3.5 -5t-3.5 -2q-2 1 0 4zM323.5 47q2.5 -14 1.5 -20q0 -8 -3 -23.5t-4 -20.5q-6 0 -6.5 4t1.5 10q6 18 6 25q1 12 -3 13q-3 3 -9 -8q-11 -19 -47 -23q-32 -4 -44 10
q-3 2 -5.5 0.5t-3.5 -2.5t0 -2l3 -3t3 -4q10 -18 -2 -25q0 12 -2 19t-7.5 14.5t-7.5 11.5q8 1 12 6.5t3.5 11.5t-4.5 10q-3 3 -25.5 21t-27.5 24q-1 1 -6.5 5.5t-6.5 7.5q-12 27 -3 44l1 2q2 0 1 -5q-2 -8 -1 -15q1 -17 9 -25q6 -6 8 0q2 3 1.5 16.5t0.5 18.5
q2 15 12.5 37.5t16.5 23.5q-5 8 -3 17t6 15.5t8 15t4 15.5v2q1 3 7 -5q11 -17 17 -20q5 -3 12.5 0.5t18 11.5t18.5 12l2 1t3 1t2.5 1t2 1.5l1.5 1.5t1 1.5v0.5q0 3 -2 3.5t-5 -1t-6 -3.5q-3 -1 -8 -4t-9.5 -5t-9.5 -3.5t-9 -1.5q-12 -1 -18 6q-5 4 -5 5t3 0q14 -2 21 0
q7 1 18 6q3 1 13 5q9 4 15 6q3 1 4 2.5t0.5 3t-1.5 2.5q-3 1 -5 -2t-6 -5l-8 -4q-4 -1 -9 -2l-6 -2q-15 -5 -27 -4q-6 0 -9.5 1.5t-5 3.5t-4.5 5t-7 5q-2 2 -1.5 5.5t3.5 6.5q1 1 6 4t7 6q3 4 8 8q1 1 1 5.5t-2.5 10.5t-7.5 6q-6 0 -9 -4t-2 -10q0 -5 2 -9t4 -4q3 0 2 -2
q-1 -3 -4 -4q-2 0 -4.5 4t-3.5 10t-1 10q1 8 5 15.5t11 7.5t11.5 -9t4.5 -24q1 -2 4.5 -1.5t9 0t7.5 -2.5v4q-5 34 24 36q4 -1 7 -2t6.5 -4t6 -8.5t3.5 -13.5v-10q0 -8 -4 -9q-5 -2 -7.5 0t0.5 7q3 7 -1 15.5t-14 7.5q-7 0 -9.5 -7t-2 -13.5t2.5 -6.5l10 -5t12 -4
q10 -3 11.5 -7.5t-1 -13t-1.5 -14.5t4 -10.5t6 -8.5t8 -15t8 -28l2 -1.5t4 -4t4 -6.5t5 -12t5 -19q3 -12 3.5 -28.5t2.5 -22.5t10 -5q10 1 13 11q9 31 -14 75q-9 17 -15 22q9 -5 19 -20t12 -28q1 0 2 -7q1 -5 1 -6t1 -5.5t1 -6t0.5 -5.5t0 -6t-1 -5.5t-1.5 -7.5q-1 -3 -2 -7
q15 -7 15 -11q-6 4 -16.5 5.5t-19 -2.5t-9.5 -14q-9 0 -13 -5q-6 -7 -6.5 -19t2 -26zM213 338q-1 0 -1 1q0 3 2 2q2 0 3.5 -3.5t0.5 -8.5q0 -1 -1 -1q-3 0 -2 6q1 4 -2 4zM282 333v-1q-2 -1 -2 0q-1 7 -5 8l-0.5 0.5l-0.5 0.5l2 2q1 0 2.5 -1t2.5 -3.5t1 -5.5z" />
    <glyph glyph-name="macos" unicode="&#xe00a;" horiz-adv-x="418" 
d="M349 161q-4 20 0 39t12.5 31.5t18 22.5t15.5 15l7 4q-3 5 -8.5 11.5t-23.5 19.5t-38 17q-8 2 -15.5 2.5t-13.5 1t-13 -0.5t-10 -1.5t-10 -3t-9 -3t-9 -3.5t-8 -3q-10 -5 -18 -7t-12 -2l-3 -1q-11 0 -30.5 8.5t-35.5 12.5t-50 -2q-32 -9 -59.5 -42t-33.5 -74
q-6 -43 5.5 -94t36.5 -94q45 -78 91 -79q12 0 37.5 10t38.5 11.5t24.5 -1t26.5 -8.5t24 -9q20 -6 32 -0.5t38 27.5q14 12 29.5 39t24 46.5t8.5 20.5q-3 1 -6.5 2.5t-13.5 8.5t-18.5 16t-17.5 25.5t-13 36.5zM287 367q14 14 19 34.5t3 33.5l-2 13q-43 -8 -73 -38
q-13 -14 -19 -33.5t-6 -32.5l1 -13q46 4 77 36z" />
    <glyph glyph-name="windows11" unicode="&#xe00b;" horiz-adv-x="463" 
d="M162 388l-162 -32v-150l162 3v179zM463 170l-264 5v-186l264 -53v234zM162 175l-162 3v-150l162 -32v179zM463 448l-264 -53v-186l264 5v234v0z" />
    <glyph glyph-name="windows13" unicode="&#xe00c;" 
d="M0 192v156l192 26v-182h-192zM224 379l256 37v-224h-256v187zM480 160v-224l-256 36v188h256zM192 -24l-192 26v158h192v-184z" />
    <glyph glyph-name="windows14" unicode="&#xe00d;" 
d="M206 192q-36 19 -69 19q-5 0 -9 -1q-34 -3 -70 -15q-7 -3 -13 -5l-45 -156q46 17 83 17q46 0 94 -31q16 55 47 161q-11 7 -18 11zM264 152l-45 -157q56 -32 93 -32q42 0 95 22l44 151q-45 -14 -84 -14q-60 0 -103 30zM146 264q45 -1 91 -31l46 159q-33 19 -53 24
q-19 5 -39 5q-39 -1 -86 -20l-45 -156q48 19 86 19zM512 349q-44 -17 -86 -17q-56 0 -101 31l-46 -159q47 -30 99 -30q43 0 88 20v1l2 1z" />
    <glyph glyph-name="windows15" unicode="&#xe00e;" 
d="M239 195l-49 -168q-26 17 -46.5 25t-57.5 6.5t-83 -20.5l48 167q46 19 83.5 21t58.5 -6t46 -25zM265 179l-49 -167q26 -17 46.5 -25t58 -6.5t83.5 20.5l47 162q-48 -16 -84.5 -16.5t-56.5 7.5t-45 25zM247 225l48 167q-25 18 -46 26t-58 6.5t-83 -21.5l-49 -167
q57 23 96 23q42 0 92 -34zM321 375l-48 -168q25 -17 46.5 -25.5t59 -6.5t81.5 22l49 167q-46 -19 -83.5 -21t-58 6t-46.5 26z" />
    <glyph glyph-name="windows19" unicode="&#xe00f;" 
d="M197 212v192l-197 -28v-164h197zM236 212h276v236l-276 -39v-197zM236 172v-198l276 -38v236h-276zM197 172h-197v-165l197 -27v192z" />
    <glyph glyph-name="windows26" unicode="&#xe010;" 
d="M120 379q43 17 77 18q19 0 35 -4q19 -5 49 -22l-42 -142q-42 27 -82 27q-34 0 -77 -16zM185 38q15 51 43 144q-11 7 -17 10q-32 17 -62 17q-4 0 -8 -1q-30 -2 -63 -14l-12 -4l-40 -140q41 16 74 16q42 0 85 -28zM431 142q-40 -13 -75 -13q-54 0 -93 28l-40 -141
q50 -29 83 -29q38 0 86 20zM486 333q-40 -16 -77 -16q-51 0 -91 28l-41 -142q42 -27 89 -27q38 0 79 18v1h1z" />
  </font>
</defs>
</svg>
